# xmcd
#
# Track frame offsets:
#	150
#	15734
#	42166
#	69394
#	89239
#	105664
#	124032
#	140813
#	160573
#	178748
#	195560
#	215424
#	238661
#	258893
#	280675
#	304459
#
# Disc length: 4315 seconds
#
# Revision: 1
# Processed by: cddbd v1.5.2PL0 Copyright (c) Steve Scherf et al.
# Submitted via: EZCDAudioConverter 2.1.7.1
#
DISCID=e610d910
DTITLE=V/A - Ultra High Frequencies: The Chicago Party
DYEAR=2015
DGENRE=
TTITLE0=Jesus Wayne - The Chicago Party Theme
TTITLE1=Magnum Force - Girl You're Too Cool
TTITLE2=Donnell Pitman - Love Explosion
TTITLE3=Jesus Wayne - Rush
TTITLE4=Yvonne Gage - Garden Of Eve
TTITLE5=Rahmlee - Think
TTITLE6=Central Power System - Master's Plan 
TTITLE7=Donnell Pitman - Burning Up
TTITLE8=Closencounter - Let Yourself Go
TTITLE9=Universal Togetherness Band - Pull Up
TTITLE10=MC² - Blow Me Away
TTITLE11=Center Stage - Another Day
TTITLE12=I.N.D. - Into New Dimensions
TTITLE13=Ken Allison - Freedom (Sweet) Freedom
TTITLE14=New Testament Band - Say Yes
TTITLE15=Harvey-Allison Experience - This Is Our Love Story
EXTD=
EXTT0=
EXTT1=
EXTT2=
EXTT3=
EXTT4=
EXTT5=
EXTT6=
EXTT7=
EXTT8=
EXTT9=
EXTT10=
EXTT11=
EXTT12=
EXTT13=
EXTT14=
EXTT15=
PLAYORDER=
